<svg id="Capa_1" data-name="Capa 1" xmlns="http://www.w3.org/2000/svg" viewBox="0 0 150 50"><defs><style>.cls-1{fill:#9d2235;}</style></defs><path class="cls-1" d="M59.39,8.8h6c3.62,0,6.35,2.21,6.35,6.72,0,3.94-2.08,6.88-6.35,6.88h-6Zm3.08,11.08h2.74c1.79,0,3.49-1.06,3.49-4.07,0-2.75-1-4.5-4-4.5H62.47Z"/><path class="cls-1" d="M76.75,11H74V8.8h2.79ZM74,12.55h2.79V22.4H74Z"/><path class="cls-1" d="M79.3,12.55H82V13.8h0a3.38,3.38,0,0,1,3-1.52c3.18,0,4.61,2.5,4.61,5.3,0,2.63-1.49,5.08-4.46,5.08a3.64,3.64,0,0,1-3-1.48h0v4.68H79.3Zm7.53,4.95c0-1.56-.64-3.18-2.43-3.18S82,15.9,82,17.5s.62,3.13,2.43,3.13S86.83,19.1,86.83,17.5Z"/><path class="cls-1" d="M101.06,22.4H98.41V21h-.06a3.63,3.63,0,0,1-3.1,1.64c-3,0-3.7-1.61-3.7-4.06V12.55h2.78v5.56c0,1.62.49,2.42,1.79,2.42,1.51,0,2.15-.82,2.15-2.82V12.55h2.79Z"/><path class="cls-1" d="M107.16,12.55h2v1.8h-2v4.89c0,.91.23,1.14,1.18,1.14a4.17,4.17,0,0,0,.86-.08v2.12a12,12,0,0,1-1.63.09c-1.71,0-3.2-.38-3.2-2.34V14.35h-1.68v-1.8h1.68v-3h2.79Z"/><path class="cls-1" d="M111.35,15.58c.15-2.53,2.49-3.3,4.76-3.3,2,0,4.45.44,4.45,2.8v5.13a5,5,0,0,0,.36,2.19h-2.83a5.11,5.11,0,0,1-.2-1,4.69,4.69,0,0,1-3.4,1.22c-1.93,0-3.45-.93-3.45-2.95,0-2.23,1.72-2.76,3.45-3s3.29-.19,3.29-1.29-.82-1.34-1.8-1.34-1.75.42-1.85,1.49Zm6.43,2a5.78,5.78,0,0,1-2.31.57c-.87.17-1.65.45-1.65,1.45s.8,1.26,1.71,1.26a2,2,0,0,0,2.25-2.27Z"/><path class="cls-1" d="M129.7,16a1.9,1.9,0,0,0-2.07-1.7c-1.79,0-2.37,1.76-2.37,3.2s.57,3.11,2.32,3.11a2.11,2.11,0,0,0,2.21-2h2.69c-.35,2.6-2.22,4-4.88,4a4.85,4.85,0,0,1-5.12-5.05c0-3.06,1.88-5.33,5.17-5.33,2.4,0,4.6,1.22,4.77,3.74Z"/><path class="cls-1" d="M137.46,11h-2.78V8.8h2.78Zm-2.78,1.52h2.78V22.4h-2.78Z"/><path class="cls-1" d="M144.74,12.28a4.91,4.91,0,0,1,5.26,5.2,5.25,5.25,0,0,1-10.5,0A4.9,4.9,0,0,1,144.74,12.28Zm0,8.35c1.9,0,2.47-1.59,2.47-3.15s-.57-3.16-2.47-3.16-2.45,1.58-2.45,3.16S142.86,20.63,144.74,20.63Zm.47-9.3h-1.94l1.88-2.7h3.09Z"/><path class="cls-1" d="M59.35,28.83h6.39c2.6,0,4.35.84,4.35,3.37A3,3,0,0,1,68.24,35a3.32,3.32,0,0,1,2.5,3.45c0,2.76-2.35,3.94-4.8,3.94H59.35Zm3,5.5h3c1,0,1.83-.47,1.83-1.61s-1-1.57-2-1.57h-2.8Zm0,5.78h3.2c1.18,0,2.2-.38,2.2-1.79s-.87-1.94-2.15-1.94H62.34Z"/><path class="cls-1" d="M72.39,35.62c.16-2.54,2.42-3.31,4.63-3.31,2,0,4.33.45,4.33,2.81v5.12a5,5,0,0,0,.34,2.19H78.94a3.8,3.8,0,0,1-.18-1,4.51,4.51,0,0,1-3.32,1.21c-1.86,0-3.35-.92-3.35-2.94,0-2.23,1.68-2.77,3.35-3s3.2-.2,3.2-1.3-.8-1.33-1.75-1.33-1.7.42-1.79,1.49Zm6.25,2a5.36,5.36,0,0,1-2.25.57c-.84.17-1.6.46-1.6,1.45s.78,1.26,1.66,1.26a2,2,0,0,0,2.19-2.27Z"/><path class="cls-1" d="M83.48,32.58h2.57v1.83h0a3.48,3.48,0,0,1,3.14-2.1,1.93,1.93,0,0,1,.59.11v2.51a4.07,4.07,0,0,0-1-.1c-2,0-2.67,1.44-2.67,3.16v4.44h-2.7Z"/><path class="cls-1" d="M97.29,36.05a1.85,1.85,0,0,0-2-1.69c-1.74,0-2.31,1.75-2.31,3.2s.55,3.1,2.25,3.1a2.09,2.09,0,0,0,2.16-2H100a4.39,4.39,0,0,1-4.74,4,4.77,4.77,0,0,1-5-5c0-3.06,1.83-5.34,5-5.34,2.32,0,4.45,1.23,4.63,3.74Z"/><path class="cls-1" d="M103.78,38.17c.08,1.71.92,2.49,2.42,2.49a2.24,2.24,0,0,0,2.14-1.28h2.38a4.42,4.42,0,0,1-4.62,3.31,4.8,4.8,0,0,1-5-5.17,4.94,4.94,0,0,1,5-5.21c3.36,0,5,2.83,4.79,5.86Zm4.4-1.72c-.25-1.37-.83-2.09-2.15-2.09a2.14,2.14,0,0,0-2.25,2.09Z"/><path class="cls-1" d="M112.6,28.83h2.71v13.6H112.6Z"/><path class="cls-1" d="M122.26,32.31a4.84,4.84,0,0,1,5.1,5.21,5.1,5.1,0,1,1-10.19,0A4.84,4.84,0,0,1,122.26,32.31Zm0,8.35c1.85,0,2.4-1.58,2.4-3.14s-.55-3.16-2.4-3.16-2.38,1.57-2.38,3.16S120.43,40.66,122.26,40.66Z"/><path class="cls-1" d="M129.15,32.58h2.58V34h.05a3.53,3.53,0,0,1,3-1.64c2.87,0,3.6,1.62,3.6,4.07v6h-2.7V36.87c0-1.62-.47-2.42-1.74-2.42-1.46,0-2.09.82-2.09,2.82v5.16h-2.71Z"/><path class="cls-1" d="M140.37,35.62c.15-2.54,2.42-3.31,4.63-3.31,2,0,4.33.45,4.33,2.81v5.12a5,5,0,0,0,.34,2.19h-2.74a3.41,3.41,0,0,1-.19-1,4.51,4.51,0,0,1-3.32,1.21c-1.87,0-3.35-.92-3.35-2.94,0-2.23,1.67-2.77,3.35-3s3.2-.2,3.2-1.3-.8-1.33-1.75-1.33-1.7.42-1.8,1.49Zm6.25,2a5.35,5.35,0,0,1-2.24.57c-.84.17-1.61.46-1.61,1.45s.79,1.26,1.66,1.26a2,2,0,0,0,2.19-2.27Z"/><path class="cls-1" d="M24.66,20l-1.6,1.61v6.13H17l-1.61,1.61L17,31h6.11v6.13l1.6,1.61,1.62-1.61V31h6.11L34,29.34l-1.62-1.61H26.28V21.6Zm0-19.66A24.67,24.67,0,1,0,49.35,25,24.66,24.66,0,0,0,24.67.33m9,9.39a1,1,0,1,1-1,1,1,1,0,0,1,1-1M15.35,14.86H33.94v.65H15.35ZM30.46,16.8v5.77l-2.89-2.91V16.8Zm-8.69,0v2.88l-2.9,2.89V16.8Zm-5.15,0v8l-2.9,2.89V16.8Zm-1.27-4.19H34V13.9H15.35ZM32.71,16.8h2.9V27.71l-2.9-2.9Zm-.64-6.11a1,1,0,1,1-1-1,1,1,0,0,1,1,1M29.82,7.47a1,1,0,1,1-1,1,1,1,0,0,1,1-1M28.55,9.72a1,1,0,1,1-1,1,1,1,0,0,1,1-1m-1.62,1a1,1,0,1,1-1-1,1,1,0,0,1,1,1M24.67,7.47a1,1,0,1,1-1,1,1,1,0,0,1,1-1M23.38,9.72a1,1,0,1,1-1,1,1,1,0,0,1,1-1m-1.61,1a1,1,0,1,1-1-1,1,1,0,0,1,1,1M19.52,7.47a1,1,0,1,1-1,1,1,1,0,0,1,1-1M18.24,9.72a1,1,0,1,1-1,1,1,1,0,0,1,1-1m-1.61,1a1,1,0,1,1-1-1,1,1,0,0,1,1,1M14.37,7.47a1,1,0,1,1-1,1,1,1,0,0,1,1-1m2.25,35.06h-2.9V31l2.9,2.89Zm5.15,0h-2.9V36.11l2.9,2.9Zm8.69,0H27.57V39l2.89-2.9Zm5.15,0h-2.9V33.87l2.9-2.9ZM24.67,40.48,13.53,29.34,24.67,18.2,35.81,29.34ZM35,9.41a1,1,0,1,1,1-1,1,1,0,0,1-1,1"/></svg>