<svg xmlns="http://www.w3.org/2000/svg" width="190" height="190.005" viewBox="0 0 190 190.005">
  <path id="Trazado_347" data-name="Trazado 347" d="M49.025,112.9,95,158.894,141.012,112.9,95,66.917Zm77.834-6.62,6.653,6.611-6.653,6.648H101.628v25.3l-6.639,6.653-6.632-6.653v-25.3H63.128l-6.636-6.648,6.636-6.611H88.358V80.952l6.632-6.662,6.639,6.662V106.28ZM95,0a95,95,0,1,0,95,94.994A94.994,94.994,0,0,0,95,0m42.483,22.658a3.993,3.993,0,1,1-3.988,3.99,3.989,3.989,0,0,1,3.988-3.99m-5.306,9.287a3.984,3.984,0,1,1-3.983,3.981,3.985,3.985,0,0,1,3.983-3.981M56.518,43.858h76.969v5.3H56.518Zm76.762,11.95H56.518V53.149H133.28ZM125.53,35.926a3.986,3.986,0,1,1-3.976-3.981,3.972,3.972,0,0,1,3.976,3.981m-9.257-13.268a3.993,3.993,0,1,1-3.993,3.99,4,4,0,0,1,3.993-3.99m-5.292,9.287a3.984,3.984,0,1,1-3.993,3.981,3.974,3.974,0,0,1,3.993-3.981m-6.636,3.981a3.995,3.995,0,1,1-3.995-3.981,3.988,3.988,0,0,1,3.995,3.981M95.013,22.658a3.993,3.993,0,1,1-3.986,3.99,3.983,3.983,0,0,1,3.986-3.99m-5.346,9.287a3.984,3.984,0,1,1-3.988,3.981,3.986,3.986,0,0,1,3.988-3.981m-6.634,3.981a3.995,3.995,0,1,1-3.993-3.981,3.983,3.983,0,0,1,3.993,3.981M73.757,22.658a3.993,3.993,0,1,1-3.988,3.99,4,4,0,0,1,3.988-3.99M68.47,31.945a3.984,3.984,0,1,1-4,3.981,3.973,3.973,0,0,1,4-3.981m-6.657,3.981a3.987,3.987,0,1,1-3.988-3.981,3.973,3.973,0,0,1,3.988,3.981M52.507,22.658a3.993,3.993,0,1,1-3.981,3.99,3.989,3.989,0,0,1,3.981-3.99m87.64,96.922v47.768h-11.94V131.514l-9.3,9.292v26.543H106.953v-14.6L95.025,164.719l-11.985-12v14.629H71.1V140.794l-9.315-9.32v35.875H49.835V119.557L43.194,112.9l6.641-6.62V61.123H61.789V94.33L71.1,85.024v-23.9H83.033V73.075L94.989,61.123l11.964,11.938V61.123H118.9V85l9.311,9.3V61.123h11.94v45.124l6.676,6.653Z" fill="#fff"/>
</svg>
