<?xml version="1.0" encoding="UTF-8"?>
<svg id="Capa_1" data-name="Capa 1" xmlns="http://www.w3.org/2000/svg" viewBox="0 0 153.06 153.06">
  <path d="M76.53,43.92c10.61,0,11.87,0,16.07,.22,2.53,.04,5.03,.51,7.4,1.38,3.48,1.32,6.22,4.07,7.53,7.55,.88,2.37,1.34,4.88,1.38,7.4,.17,4.2,.22,5.45,.22,16.07s0,11.87-.22,16.07c-.04,2.53-.51,5.03-1.38,7.4-1.31,3.49-4.07,6.24-7.55,7.55-2.37,.88-4.88,1.34-7.4,1.38-4.2,.17-5.45,.22-16.07,.22s-11.87,0-16.07-.22c-2.53-.04-5.03-.51-7.4-1.38-3.48-1.34-6.21-4.11-7.5-7.6-.88-2.37-1.34-4.88-1.38-7.4-.17-4.2-.22-5.45-.22-16.07s0-11.87,.22-16.07c.04-2.53,.51-5.03,1.38-7.4,1.33-3.47,4.08-6.2,7.55-7.5,2.37-.88,4.88-1.34,7.4-1.38,4.2-.17,5.45-.22,16.07-.22m0-7.16c-10.81,0-12.14,0-16.39,.22-3.3,.06-6.56,.69-9.65,1.85-5.36,2.06-9.61,6.29-11.67,11.65-1.14,3.09-1.75,6.36-1.8,9.65-.17,4.25-.22,5.58-.22,16.39s0,12.14,.22,16.39c.06,3.3,.69,6.56,1.85,9.65,2.06,5.35,6.3,9.59,11.65,11.65,3.09,1.16,6.35,1.79,9.65,1.85,4.25,.17,5.58,.22,16.39,.22s12.14,0,16.39-.22c3.3-.06,6.56-.69,9.65-1.85,5.35-2.06,9.59-6.3,11.65-11.65,1.13-3.09,1.72-6.36,1.75-9.65,.17-4.25,.22-5.58,.22-16.39s0-12.14-.22-16.39c-.06-3.3-.69-6.56-1.85-9.65-2.06-5.35-6.3-9.59-11.65-11.65-3.08-1.14-6.32-1.75-9.6-1.8-4.25-.17-5.58-.22-16.39-.22l.02-.05Z"/>
  <path d="M76.53,56.12c-11.27,0-20.41,9.14-20.41,20.41s9.14,20.41,20.41,20.41,20.41-9.14,20.41-20.41-9.14-20.41-20.41-20.41h0Zm0,33.67c-7.32,0-13.25-5.93-13.25-13.25,0-7.32,5.93-13.25,13.25-13.25,7.32,0,13.25,5.93,13.25,13.25h0c.01,7.31-5.9,13.24-13.21,13.25-.02,0-.03,0-.05,0Z"/>
  <circle cx="97.76" cy="55.3" r="4.76"/>
</svg>