<?xml version="1.0" encoding="UTF-8"?>
<svg id="Capa_1" data-name="Capa 1" xmlns="http://www.w3.org/2000/svg" viewBox="0 0 153.06 153.06">
  <path d="M53.31,113.62h-16.18V61.86h16.18v51.76Zm-8.5-58.23h-.12c-5.85,0-9.65-3.96-9.65-8.97s3.91-8.99,9.88-8.99,9.63,3.87,9.75,8.98c0,5.01-3.78,8.98-9.86,8.98Zm73.21,58.23h-18.34v-26.78c0-7.01-2.86-11.8-9.17-11.8-4.82,0-7.5,3.23-8.76,6.34-.47,1.12-.39,2.67-.39,4.23v28h-18.17s.24-47.44,0-51.76h18.17v8.12c1.07-3.55,6.88-8.62,16.14-8.62,11.49,0,20.53,7.44,20.53,23.47v28.78Z"/>
</svg>