<?xml version="1.0" encoding="UTF-8"?>
<svg id="Capa_1" data-name="Capa 1" xmlns="http://www.w3.org/2000/svg" viewBox="0 0 153.06 153.06">
  <defs>
    <style>
      .cls-1 {
        stroke-width: 0px;
      }
    </style>
  </defs>
  <path class="cls-1" d="m77.41,115.58c-16.35,0-29.85-8.51-34.27-25.73-2.49-9.72-1.9-20.68-.51-27.7,1.56-7.88,6.62-18.84,15.77-23.8,9.62-5.22,21.13-5.32,28.06-3.82,8.75,1.89,15.08,5.66,19.93,11.87,5.12,6.57,6.46,13.2,6.51,13.48l-6.86,1.34,3.43-.67-3.43.68c-.01-.05-1.12-5.35-5.17-10.54-3.83-4.91-8.73-7.8-15.89-9.34-6.22-1.34-15.82-.89-23.25,3.14-7.51,4.07-11.23,13.87-12.25,19.02-1.18,5.98-1.78,16.02.42,24.61,2.21,8.62,7.08,14.65,14.49,17.93,8.39,3.72,18.5,2.77,24.61.82,6.08-1.94,11.61-7.42,12.88-12.74,1.63-6.86-.92-12.14-6.3-15.24-1.11,7.55-4.67,13.2-10.11,15.69-8.13,3.71-18.77.71-22.32-6.3-1.96-3.86-1.86-8.54.26-12.2,1.45-2.5,5.18-6.77,13.93-7.24,4.14-.22,7.92-.05,11.32.49-.69-4.19-2.9-9.28-9.51-9.53-6.02-.23-8.89,2.34-10.24,4.54l-5.96-3.65c1.53-2.5,6.2-8.27,16.46-7.87,9.55.36,15.85,7.44,16.47,18.47,10.46,4.23,15.35,13.72,12.8,24.45-1.84,7.76-9.06,15.07-17.55,17.78-3.79,1.21-8.6,2.06-13.72,2.06Zm3.43-39.86c-4.1,0-9.33.28-11.39,3.84-.95,1.64-.98,3.76-.07,5.54,1.83,3.6,8.6,5.19,13.19,3.1,3.54-1.62,5.76-5.88,6.28-11.76-2.38-.48-5.06-.73-8.01-.73Z"/>
</svg>