<?xml version="1.0" encoding="UTF-8"?>
<svg id="Capa_1" data-name="Capa 1" xmlns="http://www.w3.org/2000/svg" viewBox="0 0 153.06 153.06">
  <path d="M108.6,58.28c-4.18,0-8.03-1.38-11.13-3.72-3.55-2.68-6.1-6.6-7-11.13-.22-1.12-.34-2.27-.36-3.45h-11.93v50.47c-.01,4.77-3.12,8.82-7.43,10.25-1.25,.41-2.6,.61-4.01,.53-1.8-.1-3.48-.64-4.94-1.52-3.11-1.86-5.22-5.24-5.28-9.1-.09-6.04,4.79-10.96,10.82-10.96,1.19,0,2.33,.19,3.41,.55v-12.12c-1.13-.17-2.28-.25-3.44-.25-6.6,0-12.78,2.74-17.19,7.69-3.34,3.74-5.34,8.5-5.65,13.5-.4,6.57,2,12.81,6.66,17.42,.68,.68,1.4,1.3,2.16,1.88,4,3.07,8.88,4.74,14.03,4.74,1.16,0,2.31-.09,3.44-.25,4.81-.71,9.24-2.91,12.74-6.37,4.3-4.25,6.68-9.89,6.7-15.9l-.06-26.67c2.05,1.58,4.3,2.89,6.7,3.91,3.74,1.58,7.71,2.38,11.8,2.38v-11.88h-.03Z"/>
</svg>